<?xml version="1.0" encoding="UTF-8"?><svg id="a" xmlns="http://www.w3.org/2000/svg" width="607.001" height="148.08" viewBox="0 0 607.001 148.08"><defs><style>.b{fill:#00b0ff;}</style></defs><path class="b" d="M51.49,69.227c13.17,0,19.359,8.301,21.75,16.399l23.757-7.902c-4.194-16.399-19.363-32.805-46.109-32.805C22.353,44.919,0,66.463,0,96.5c0,29.845,22.752,51.581,51.689,51.581,26.148,0,41.513-16.599,45.903-32.809l-23.35-7.702c-2.195,7.507-8.98,16.399-22.552,16.399s-25.15-9.879-25.15-27.468,11.381-27.272,24.95-27.272"/><polygon class="b" points="297.643 46.775 273.345 114.642 247.995 46.775 217.677 46.775 259.423 147.96 287.039 147.96 326.712 46.775 297.643 46.775"/><path class="b" d="M133.247,96.103c0-17.857,10.416-28.368,24.642-28.368,14.026,0,24.25,10.511,24.25,28.368s-10.424,29.163-24.25,29.163c-14.425,0-24.642-11.505-24.642-29.163M182.339,135.388v9.919h25.643V47.693h-25.843v8.925c-5.21-6.346-14.226-11.701-28.252-11.701-28.655,0-47.488,22.618-47.488,51.185,0,29.565,19.233,51.976,48.29,51.976,11.617,0,20.234-4.561,27.65-12.691"/><path class="b" d="M457.687,96.103c0-17.857,10.42-28.368,24.642-28.368,14.026,0,24.25,10.511,24.25,28.368s-10.424,29.163-24.25,29.163c-14.425,0-24.642-11.505-24.642-29.163M506.779,135.388v9.919h25.643V47.693h-25.843v8.925c-5.21-6.346-14.226-11.701-28.252-11.701-28.655,0-47.488,22.618-47.488,51.185,0,29.565,19.233,51.976,48.29,51.976,11.617,0,20.234-4.561,27.65-12.691"/><path class="b" d="M576.195,29.528h-3.791v-8.809h3.791c2.964,0,4.941,1.633,4.941,4.404s-1.977,4.405-4.941,4.405M582.784,34.749c3.788-1.469,6.589-5.221,6.589-9.625,0-6.037-5.105-10.931-11.697-10.931h-13.344v33.77h8.073v-11.907h2.307l5.932,11.907h8.896l-6.756-13.214Z"/><path class="b" d="M575.534,55.793c-13.511,0-24.054-10.765-24.054-24.635,0-13.703,10.543-24.468,24.054-24.468s24.054,10.765,24.054,24.468c0,13.87-10.543,24.635-24.054,24.635M575.534,0c-17.299,0-31.303,14.03-31.303,31.158,0,17.295,14.004,31.162,31.303,31.162,17.466,0,31.466-13.867,31.466-31.162,0-17.128-14.001-31.158-31.466-31.158"/><path class="b" d="M418.726,95.053c0-31.335-17.796-50.567-47.517-50.567-24.64,0-47.322,20.228-47.322,51.357,0,32.92,23.266,52.152,49.669,52.152,20.926,0,35.197-10.906,41.652-25.183l-20.531-9.916c-3.519,7.342-9.974,12.497-20.926,12.497-12.514,0-22.877-8.726-24.05-20.823h68.443c.195-1.986.584-5.751.584-9.516ZM350.088,85.136c.59-8.921,8.017-19.232,21.51-19.232,14.866,0,21.121,9.516,21.51,19.232h-43.019Z"/></svg>